<svg width="474" height="328" viewBox="0 0 474 328" fill="none" xmlns="http://www.w3.org/2000/svg">
<path d="M228.892 169.674L473.27 46.3827L256.963 226.931" fill="url(#paint0_linear_2_21)"/>
<path d="M361.659 119.341L473.271 46.3827L338.669 114.558L361.659 119.341Z" fill="url(#paint1_linear_2_21)"/>
<path d="M131.467 300.539C120.112 308.999 93.2413 316.755 93.2413 316.755C93.2413 316.755 95.3931 315.521 98.9265 313.774C102.46 312.018 105.389 308.31 105.389 308.31C105.389 308.31 98.1715 312.722 88.1375 316.119C78.1111 319.517 64.6948 321.983 64.6948 321.983C64.6948 321.983 67.4203 320.659 72.1995 317.527C76.9862 314.394 85.2081 308.938 85.2081 308.938C85.2081 308.938 64.6872 320.205 33.317 322.369C21.0407 323.217 0.96521 327.621 0.96521 327.621C0.96521 327.621 10.667 319.237 15.28 314.402C22.6111 306.729 31.135 294.388 37.8168 286.594C47.7677 274.987 68.198 254.572 68.198 254.572C68.198 254.572 68.198 254.572 64.0908 256.418C59.9836 258.265 55.0157 260.247 55.0157 260.247C55.0157 260.247 75.5592 240.619 90.848 234.702C108.077 228.036 131.067 231.077 131.067 231.077C131.067 231.077 133.09 240.929 140.61 253.687C148.387 266.868 154.781 272.24 154.781 272.24C154.781 272.24 148.862 287.585 131.467 300.539Z" fill="url(#paint2_linear_2_21)"/>
<path d="M134.208 289.144C125.676 295.5 105.48 301.334 105.48 301.334C105.48 301.334 107.095 300.411 109.753 299.094C112.411 297.778 114.608 294.986 114.608 294.986C114.608 294.986 109.179 298.3 101.644 300.85C94.1095 303.4 84.0303 305.261 84.0303 305.261C84.0303 305.261 86.0763 304.262 89.6701 301.909C93.2639 299.556 99.4474 295.455 99.4474 295.455C99.4474 295.455 84.0227 303.922 60.4441 305.549C51.218 306.184 36.1331 309.491 36.1331 309.491C36.1331 309.491 43.4264 303.188 46.8918 299.556C52.4033 293.79 58.8057 284.521 63.834 278.657C71.3161 269.932 86.6652 254.595 86.6652 254.595C86.6652 254.595 86.6652 254.595 83.5773 255.979C80.4893 257.364 76.7521 258.855 76.7521 258.855C76.7521 258.855 92.1918 244.107 103.683 239.658C116.631 234.649 133.913 236.934 133.913 236.934C133.913 236.934 135.431 244.342 141.086 253.921C146.929 263.834 151.739 267.859 151.739 267.859C151.739 267.859 147.277 279.406 134.208 289.144Z" fill="url(#paint3_linear_2_21)"/>
<path d="M147.133 208.892C148.432 206.932 184.657 168.024 228.688 145.196C272.72 122.367 292.675 120.415 292.675 120.415C292.675 120.415 303.735 128.239 314.796 148.676C325.857 169.114 329.111 177.369 328.243 179.98C327.374 182.59 284.43 229.11 237.356 248.458C190.289 267.806 184.868 268.896 184.868 268.896C184.868 268.896 179.009 268.245 172.29 258.03C165.57 247.815 149.949 222.376 148.213 216.724C146.476 211.071 147.133 208.892 147.133 208.892Z" fill="url(#paint4_linear_2_21)"/>
<path d="M363.818 118.024C361.213 114.331 357.748 113.673 336.706 113.892C315.664 114.112 293.762 121.066 293.762 121.066L294.011 121.474C297.272 124.206 306.03 132.476 314.804 148.676C323.131 164.059 327.027 172.542 328.084 176.908L328.907 178.239C328.907 178.239 328.907 178.239 332.591 174.759C336.276 171.278 351.459 148.888 357.099 138.454C362.739 128.027 366.423 121.716 363.818 118.024Z" fill="url(#paint5_linear_2_21)"/>
<path d="M186.612 268.237L162.535 319.108C162.535 319.108 186.174 309.324 213.724 291.066C241.274 272.808 243.441 269.978 243.441 269.978L250.817 242.155C250.81 242.155 206.567 262.585 186.612 268.237Z" fill="url(#paint6_linear_2_21)"/>
<path d="M201.138 162.153L175.763 156.939C175.763 156.939 153.422 166.284 134.766 178.459C116.11 190.634 97.8921 204.329 97.8921 204.329L148.862 206.94C148.87 206.932 184.876 169.977 201.138 162.153Z" fill="url(#paint7_linear_2_21)"/>
<path d="M172.29 258.022C165.563 247.807 149.949 222.368 148.213 216.716C147.737 215.18 147.45 213.909 147.269 212.857L134.117 222.58C134.117 222.58 133.249 232.144 144.959 249.971C156.669 267.798 162.747 273.882 165.563 273.663C168.379 273.443 180.527 267.14 180.527 267.14L180.278 266.732C178.081 265.196 175.272 262.547 172.29 258.022Z" fill="url(#paint8_linear_2_21)"/>
<path d="M134.985 228.24L131.082 231.062C131.082 231.062 130.652 237.146 139.538 251.931C148.432 266.716 153.853 272.149 156.239 272.369C158.624 272.588 160.361 270.409 160.361 270.409C160.361 270.409 139.538 247.149 134.985 228.24Z" fill="url(#paint9_linear_2_21)"/>
<path d="M216.978 196.066L197.454 202.808C197.454 202.808 167.186 219.637 157.326 225.637C144.959 233.158 108.741 257.16 108.741 257.16L110.259 260.421L200.059 206.728L219.794 199.116L216.978 196.066Z" fill="url(#paint10_linear_2_21)"/>
<path d="M110.259 260.413L159.712 237.585C159.712 237.585 178.707 226.704 184.876 222.8C193.792 217.162 219.794 199.108 219.794 199.108L199.19 206.932L110.259 260.413Z" fill="url(#paint11_linear_2_21)"/>
<path d="M305.91 11.9393L310.681 9.97949C310.681 9.97949 311.882 10.5319 313.067 13.2407C314.585 16.7214 314.804 19.1125 314.804 19.1125L310.032 21.723C310.024 21.723 307.639 15.2005 305.91 11.9393Z" fill="black"/>
<path d="M262.089 54.986L310.893 25.423C310.893 25.423 311.474 20.7847 309.738 16.7289C308.001 12.6732 305.978 11.5079 305.978 11.5079L243.222 39.9889" fill="url(#paint12_linear_2_21)"/>
<path d="M240.036 39.8376C240.036 39.8376 230.636 50.1963 228.469 61.5009C226.303 72.8055 226.514 91.7146 225.865 98.0252C225.215 104.328 221.961 116.072 220.006 121.505C218.05 126.937 217.401 134.55 217.401 134.55C217.401 134.55 231.067 136.07 246.25 134.33C261.433 132.59 266.854 130.638 266.854 130.638C266.854 130.638 265.985 112.811 264.392 107.014C262.799 101.218 262.369 99.1905 262.369 99.1905C262.369 99.1905 262.95 97.0189 264.392 93.1069C265.842 89.1949 273.067 75.2798 271.912 69.9226C270.757 64.5579 267.865 56.7339 265.404 54.1234C262.943 51.5129 261.931 51.0816 261.931 51.0816C261.931 51.0816 256.291 42.9626 252.388 39.1944C248.484 35.4262 243.713 35.8575 243.713 35.8575L240.036 39.8376Z" fill="url(#paint13_linear_2_21)"/>
<path opacity="0.5" d="M243.66 74.4172C243.66 74.4172 246.189 81.8099 250.387 86.7358C254.577 91.6617 263.184 96.7389 263.184 96.7389L264.407 93.1069L244.241 74.4248" fill="url(#paint14_linear_2_21)"/>
<path d="M259.915 48.2441C257.922 45.5353 254.826 41.5249 252.403 39.1868C248.499 35.4186 243.728 35.8499 243.728 35.8499L240.089 39.7846C242.701 41.3887 249.149 42.5767 253.271 44.9829C255.778 46.4432 258.065 47.5026 259.915 48.2441Z" fill="url(#paint15_linear_2_21)"/>
<path d="M242.573 105.274C242.573 105.274 247.201 105.13 253.852 103.534C260.504 101.937 261.659 100.923 261.659 100.923L260.21 106.863C260.21 106.863 256.88 109.179 252.108 109.617C247.337 110.049 242.127 110.2 242.127 110.2L242.573 105.274Z" fill="url(#paint16_linear_2_21)"/>
<path d="M221.75 134.837C221.75 134.837 223.048 141.791 227.533 144.401C232.018 147.012 236.352 149.04 236.352 149.04L256.888 164.695L224.355 177.884C224.355 177.884 228.545 187.736 232.018 192.669C235.491 197.595 237.945 199.918 237.945 199.479C237.945 199.04 258.481 189.476 269.466 185.276C280.459 181.077 285.947 178.61 287.978 174.411C290.002 170.211 285.668 165.429 283.637 161.661C281.614 157.893 267.873 138.477 265.419 135.722C262.965 132.968 260.934 132.098 260.934 132.098C260.934 132.098 238.375 136.434 221.75 134.837Z" fill="black"/>
<path d="M224.347 177.876L215.529 177.732L205.261 182.371L209.602 192.518L211.625 191.216C211.625 191.216 212.637 200.924 215.529 207.447C218.42 213.969 224.785 219.478 226.227 219.334C227.677 219.19 228.832 216.867 228.832 216.867C228.832 216.867 223.773 208.317 224.785 203.535C225.797 198.753 227.963 191.073 227.963 191.073L229.557 189.332C229.557 189.325 224.642 180.343 224.347 177.876Z" fill="url(#paint17_linear_2_21)"/>
<path d="M224.347 177.876L217.688 177.77C218.02 179.412 218.624 181.955 219.289 182.81C220.195 183.983 225.525 185.852 228.281 190.724L229.557 189.332C229.557 189.325 224.642 180.343 224.347 177.876Z" fill="white"/>
<path d="M226.227 219.326C226.62 219.289 226.989 219.084 227.322 218.82C224.551 216.996 221.637 213.591 218.851 209.906C214.804 204.541 214.509 193.532 213.936 191.209C213.452 189.279 210.47 182.636 209.481 180.456L205.261 182.363L209.602 192.51L211.625 191.209C211.625 191.209 212.637 200.917 215.529 207.439C218.42 213.962 224.785 219.47 226.227 219.326Z" fill="black"/>
<path d="M249.836 36.2888C249.836 36.2888 249.406 32.5962 249.187 31.0678C248.968 29.5469 249.836 21.7229 254.064 18.5676C258.292 15.4123 265.668 15.087 270.115 17.2662C274.562 19.4378 278.571 21.9424 279.439 23.4633C280.308 24.9842 280.738 27.8141 280.413 28.6843C280.089 29.5544 279.545 29.5544 279.545 29.5544L274.992 25.7484C274.992 25.7484 271.633 29.2291 271.519 30.0992C271.414 30.9694 270.327 35.8575 270.327 35.8575C270.327 35.8575 268.265 35.7515 268.265 35.4262C268.265 35.1008 266.204 29.3426 264.687 29.5544C263.169 29.7739 261.146 29.335 260.24 32.8157C259.983 33.8145 259.477 36.2963 259.477 36.2963L252.75 39.0127L249.836 36.2888Z" fill="black"/>
<path d="M275 25.7484C275 25.7484 271.64 29.2291 271.527 30.0992C271.421 30.9694 270.334 35.8575 270.334 35.8575C270.334 35.8575 268.273 35.7516 268.273 35.4262C268.273 35.1008 266.212 29.3426 264.694 29.5544C263.177 29.7739 261.153 29.335 260.247 32.8157C259.991 33.8145 259.485 36.2964 259.485 36.2964L252.758 39.0128L261.652 51.006L263.388 50.2796C263.388 50.2796 270.47 52.6706 271.127 52.595C271.776 52.5193 272.501 49.4775 272.501 49.19C272.501 48.9024 273.732 48.6073 274.237 48.4636C274.743 48.3198 274.094 47.2302 274.094 47.2302L275.325 47.0108L275.755 44.4003C275.755 44.4003 276.691 44.8316 276.986 44.8316C277.273 44.8316 278.435 44.3246 278.435 44.3246L277.28 36.0618L278.579 34.8284L279.085 29.3199L278.956 29.0324L275 25.7484Z" fill="url(#paint18_linear_2_21)"/>
<path d="M243.728 73.6757C243.728 73.6757 245.608 80.6295 262.527 92.0779C279.447 103.526 290.727 110.336 294.63 112.515C298.533 114.687 304.46 120.052 304.46 120.052C304.46 120.052 307.79 116.284 309.662 112.803C311.542 109.322 311.972 107.582 311.972 107.582C311.972 107.582 291.149 93.2355 284.928 88.3096C278.707 83.3837 270.327 73.3806 269.458 71.3527C268.59 69.3249 268.447 55.8486 262.225 52.368C256.004 48.8873 249.066 52.368 246.031 59.7606C242.996 67.1533 243.728 73.6757 243.728 73.6757Z" fill="url(#paint19_linear_2_21)"/>
<path d="M306.446 117.267L311.655 119.439C311.655 119.439 313.716 117.593 314.804 114.437C315.891 111.282 316.321 109.875 316.321 109.875L311.98 107.589C311.98 107.589 308.401 115.633 306.446 117.267Z" fill="black"/>
<path d="M316.321 110.745C316.321 110.745 323.697 109.875 325.54 109.875C327.382 109.875 330.961 110.964 334.109 112.372C337.257 113.779 339.643 115.958 339.643 116.503C339.643 117.048 339.099 117.918 337.363 117.593C335.626 117.267 328.575 115.746 327.382 115.852C326.189 115.958 320.443 119.008 318.594 119.008C316.744 119.008 313.384 117.706 313.384 117.706C313.384 117.706 316.321 112.372 316.321 110.745Z" fill="url(#paint20_linear_2_21)"/>
<path d="M310.681 9.98706C310.681 9.98706 314.154 8.3224 316.034 7.30847C317.914 6.29454 322.104 4.1229 325.29 2.81387C328.469 1.5124 332.667 -0.810559 333.097 0.34714C333.528 1.50484 324.853 6.58206 324.853 6.58206C324.853 6.58206 327.744 10.0627 327.744 10.6378C327.744 11.2204 324.709 16.2901 324.709 16.2901C324.709 16.2901 322.331 17.1527 321.531 17.0165C320.73 16.8803 318.782 15.2762 318.782 15.2762L314.441 16.5776C314.441 16.5776 312.123 11.2129 310.681 9.98706Z" fill="url(#paint21_linear_2_21)"/>
<defs>
<linearGradient id="paint0_linear_2_21" x1="513.059" y1="34.6375" x2="226.377" y2="207.568" gradientUnits="userSpaceOnUse">
<stop stop-color="#1DACFF"/>
<stop offset="0.1355" stop-color="#1CA9FB"/>
<stop offset="0.2739" stop-color="#1B9FEF"/>
<stop offset="0.4138" stop-color="#188EDA"/>
<stop offset="0.5546" stop-color="#1476BD"/>
<stop offset="0.6962" stop-color="#0F5898"/>
<stop offset="0.8385" stop-color="#08326B"/>
<stop offset="0.9788" stop-color="#010737"/>
<stop offset="1" stop-color="#00002E"/>
</linearGradient>
<linearGradient id="paint1_linear_2_21" x1="482.803" y1="36.7681" x2="318.614" y2="135.585" gradientUnits="userSpaceOnUse">
<stop stop-color="#1DACFF"/>
<stop offset="0.1355" stop-color="#1CA9FB"/>
<stop offset="0.2739" stop-color="#1B9FEF"/>
<stop offset="0.4138" stop-color="#188EDA"/>
<stop offset="0.5546" stop-color="#1476BD"/>
<stop offset="0.6962" stop-color="#0F5898"/>
<stop offset="0.8385" stop-color="#08326B"/>
<stop offset="0.9788" stop-color="#010737"/>
<stop offset="1" stop-color="#00002E"/>
</linearGradient>
<linearGradient id="paint2_linear_2_21" x1="0.977214" y1="278.989" x2="154.792" y2="278.989" gradientUnits="userSpaceOnUse">
<stop stop-color="#88AEDA"/>
<stop offset="0.0417" stop-color="#8EADD4"/>
<stop offset="0.496" stop-color="#CBA895"/>
<stop offset="0.8277" stop-color="#F1A56D"/>
<stop offset="1" stop-color="#FFA45E"/>
</linearGradient>
<linearGradient id="paint3_linear_2_21" x1="36.1359" y1="272.945" x2="151.732" y2="272.945" gradientUnits="userSpaceOnUse">
<stop stop-color="#88CFDA"/>
<stop offset="0.0417" stop-color="#8ED0D4"/>
<stop offset="0.496" stop-color="#CBD995"/>
<stop offset="0.8277" stop-color="#F1DF6D"/>
<stop offset="1" stop-color="#FFE15E"/>
</linearGradient>
<linearGradient id="paint4_linear_2_21" x1="268.973" y1="235.385" x2="130.211" y2="55.0271" gradientUnits="userSpaceOnUse">
<stop stop-color="#A1BAFF"/>
<stop offset="0.4885" stop-color="white"/>
</linearGradient>
<linearGradient id="paint5_linear_2_21" x1="353.616" y1="160.132" x2="326.844" y2="116.547" gradientUnits="userSpaceOnUse">
<stop stop-color="#3D00BA"/>
<stop offset="0.7452" stop-color="#CE00FF"/>
</linearGradient>
<linearGradient id="paint6_linear_2_21" x1="162.532" y1="280.628" x2="250.812" y2="280.628" gradientUnits="userSpaceOnUse">
<stop stop-color="#3D00BA"/>
<stop offset="0.7452" stop-color="#CE00FF"/>
</linearGradient>
<linearGradient id="paint7_linear_2_21" x1="182.606" y1="196.287" x2="129.65" y2="175.498" gradientUnits="userSpaceOnUse">
<stop stop-color="#3D00BA"/>
<stop offset="0.7452" stop-color="#CE00FF"/>
</linearGradient>
<linearGradient id="paint8_linear_2_21" x1="174.196" y1="274.132" x2="137.646" y2="218.776" gradientUnits="userSpaceOnUse">
<stop stop-color="#270036"/>
<stop offset="0.4379" stop-color="#4F008B"/>
<stop offset="1" stop-color="#4C24B1"/>
</linearGradient>
<linearGradient id="paint9_linear_2_21" x1="131.398" y1="228.666" x2="157.512" y2="274.265" gradientUnits="userSpaceOnUse">
<stop stop-color="#7633FF"/>
<stop offset="0.1585" stop-color="#7137FF"/>
<stop offset="0.3535" stop-color="#6243FF"/>
<stop offset="0.5676" stop-color="#4957FF"/>
<stop offset="0.7937" stop-color="#2672FF"/>
<stop offset="1" stop-color="#0090FF"/>
</linearGradient>
<linearGradient id="paint10_linear_2_21" x1="226.597" y1="192.644" x2="113.267" y2="253.083" gradientUnits="userSpaceOnUse">
<stop stop-color="#7633FF"/>
<stop offset="0.1316" stop-color="#6342FF"/>
<stop offset="0.5337" stop-color="#2E6CFF"/>
<stop offset="0.8353" stop-color="#0D86FF"/>
<stop offset="1" stop-color="#0090FF"/>
</linearGradient>
<linearGradient id="paint11_linear_2_21" x1="110.258" y1="229.76" x2="219.795" y2="229.76" gradientUnits="userSpaceOnUse">
<stop stop-color="#3D00BA"/>
<stop offset="0.7452" stop-color="#CE00FF"/>
</linearGradient>
<linearGradient id="paint12_linear_2_21" x1="243.221" y1="33.2446" x2="310.988" y2="33.2446" gradientUnits="userSpaceOnUse">
<stop stop-color="#7633FF"/>
<stop offset="0.1585" stop-color="#7137FF"/>
<stop offset="0.3535" stop-color="#6243FF"/>
<stop offset="0.5676" stop-color="#4957FF"/>
<stop offset="0.7937" stop-color="#2672FF"/>
<stop offset="1" stop-color="#0090FF"/>
</linearGradient>
<linearGradient id="paint13_linear_2_21" x1="233.572" y1="141.781" x2="267.546" y2="31.3916" gradientUnits="userSpaceOnUse">
<stop stop-color="#7633FF"/>
<stop offset="0.1106" stop-color="#6640FF"/>
<stop offset="0.5243" stop-color="#2F6BFF"/>
<stop offset="0.8331" stop-color="#0D86FF"/>
<stop offset="1" stop-color="#0090FF"/>
</linearGradient>
<linearGradient id="paint14_linear_2_21" x1="243.663" y1="85.5741" x2="264.405" y2="85.5741" gradientUnits="userSpaceOnUse">
<stop stop-color="#7700BB"/>
<stop offset="1"/>
</linearGradient>
<linearGradient id="paint15_linear_2_21" x1="240.088" y1="42.0428" x2="259.915" y2="42.0428" gradientUnits="userSpaceOnUse">
<stop stop-color="#7633FF"/>
<stop offset="0.1585" stop-color="#7137FF"/>
<stop offset="0.3535" stop-color="#6243FF"/>
<stop offset="0.5676" stop-color="#4957FF"/>
<stop offset="0.7937" stop-color="#2672FF"/>
<stop offset="1" stop-color="#0090FF"/>
</linearGradient>
<linearGradient id="paint16_linear_2_21" x1="242.136" y1="105.561" x2="261.658" y2="105.561" gradientUnits="userSpaceOnUse">
<stop stop-color="#7700BB"/>
<stop offset="1"/>
</linearGradient>
<linearGradient id="paint17_linear_2_21" x1="205.262" y1="198.531" x2="229.556" y2="198.531" gradientUnits="userSpaceOnUse">
<stop stop-color="#270036"/>
<stop offset="0.5936" stop-color="#4F008B"/>
<stop offset="1" stop-color="#4C24B1"/>
</linearGradient>
<linearGradient id="paint18_linear_2_21" x1="252.765" y1="39.1692" x2="279.083" y2="39.1692" gradientUnits="userSpaceOnUse">
<stop stop-color="#A1BAFF"/>
<stop offset="0.4885" stop-color="white"/>
</linearGradient>
<linearGradient id="paint19_linear_2_21" x1="243.652" y1="85.5359" x2="311.98" y2="85.5359" gradientUnits="userSpaceOnUse">
<stop stop-color="#7633FF"/>
<stop offset="0.1585" stop-color="#7137FF"/>
<stop offset="0.3535" stop-color="#6243FF"/>
<stop offset="0.5676" stop-color="#4957FF"/>
<stop offset="0.7937" stop-color="#2672FF"/>
<stop offset="1" stop-color="#0090FF"/>
</linearGradient>
<linearGradient id="paint20_linear_2_21" x1="313.39" y1="114.438" x2="339.635" y2="114.438" gradientUnits="userSpaceOnUse">
<stop stop-color="#A1BAFF"/>
<stop offset="0.4885" stop-color="white"/>
</linearGradient>
<linearGradient id="paint21_linear_2_21" x1="310.678" y1="8.53026" x2="333.108" y2="8.53026" gradientUnits="userSpaceOnUse">
<stop stop-color="#A1BAFF"/>
<stop offset="0.4885" stop-color="white"/>
</linearGradient>
</defs>
</svg>
